<?xml version="1.0" encoding="UTF-8"?>
<svg width="512px" height="512px" viewBox="0 0 512 512" version="1.1" xmlns="http://www.w3.org/2000/svg">
    <g stroke="none" stroke-width="1" fill="none" fill-rule="evenodd">
        <g transform="translate(21.971762, 80.000000)" fill="currentColor">
            <path d="M485.205631,133.170523 C483.846749,132.031741 471.568955,122.701383 445.214282,122.701383 C438.282882,122.741407 431.366424,123.349518 424.534381,124.519607 C419.539051,89.6862707 390.677144,72.8437786 389.538362,71.8868188 L382.495138,67.7910309 L377.949579,74.3940534 C372.21801,83.358316 367.995973,93.2021925 365.451684,103.533479 C360.666886,123.342546 363.633461,142.003262 373.633691,157.936642 C361.585567,164.769335 342.054018,166.357888 337.95823,166.54928 L15.2809611,166.54928 C11.2196095,166.546651 7.32510546,168.164755 4.46139153,171.044638 C1.59767759,173.924521 0,177.828073 0.027022182,181.889346 C-0.406442268,210.218428 4.37832895,238.385322 14.142179,264.982164 C25.2811908,294.121589 41.8653038,315.796728 63.1863678,328.945355 C87.3208935,343.739954 126.632801,352.1612 170.940039,352.1612 C190.985514,352.1612 210.989212,350.332898 230.702178,346.696959 C258.184546,341.713469 284.619363,332.092865 308.876222,318.246545 C328.845169,306.644378 346.803665,291.885254 362.054477,274.542192 C387.729708,245.632437 402.954938,213.296766 414.09395,184.587972 L418.639509,184.587972 C446.592304,184.587972 463.865428,173.429821 473.406317,163.869793 C479.739129,157.867863 484.700855,150.568902 487.952106,142.472172 L490,136.558161 L485.205631,133.170523 Z"></path>
            <path d="M45.2816503,157.295479 L88.450106,157.295479 C90.5641632,157.295479 92.2779451,155.581697 92.2779451,153.46764 L92.2779451,114.729908 C92.2779451,112.615851 90.5641632,110.902069 88.450106,110.902069 L45.2816503,110.902069 C43.1675931,110.902069 41.4538111,112.615851 41.4538111,114.729908 L41.4538111,153.429362 C41.5324085,155.509994 43.2010185,157.178604 45.2816503,157.257201 M104.814118,157.295479 L147.992144,157.295479 C150.106201,157.295479 151.819983,155.581697 151.819983,153.46764 L151.819983,114.729908 C151.819983,112.615851 150.106201,110.902069 147.992144,110.902069 L104.814118,110.902069 C102.700061,110.902069 100.986279,112.615851 100.986279,114.729908 L100.986279,153.429362 C101.064877,155.509994 102.733487,157.178604 104.814118,157.257201 M165.485368,157.295479 L208.644255,157.295479 C210.758312,157.295479 212.472094,155.581697 212.472094,153.46764 L212.472094,114.729908 C212.472094,112.615851 210.758312,110.902069 208.644255,110.902069 L165.485368,110.902069 C163.371311,110.902069 161.657529,112.615851 161.657529,114.729908 L161.657529,153.429362 C161.62246,154.454917 162.014476,155.449052 162.740077,156.174654 C163.465678,156.900255 164.459813,157.292271 165.485368,157.257201 M225.257076,157.295479 L268.435102,157.295479 C270.549159,157.295479 272.262941,155.581697 272.262941,153.46764 L272.262941,114.729908 C272.262941,112.615851 270.549159,110.902069 268.435102,110.902069 L225.257076,110.902069 C223.143019,110.902069 221.429237,112.615851 221.429237,114.729908 L221.429237,153.429362 C221.429237,155.543419 223.143019,157.257201 225.257076,157.257201 M104.814118,101.983204 L147.992144,101.983204 C150.072775,101.904607 151.741385,100.235997 151.819983,98.1553648 L151.819983,59.4176328 C151.819983,57.3035757 150.106201,55.5897937 147.992144,55.5897937 L104.814118,55.5897937 C102.700061,55.5897937 100.986279,57.3035757 100.986279,59.4176328 L100.986279,98.1170864 C101.141203,100.163542 102.767663,101.790001 104.814118,101.944926 M165.485368,101.983204 L208.644255,101.983204 C210.724886,101.904607 212.393496,100.235997 212.472094,98.1553648 L212.472094,59.4176328 C212.472094,57.3035757 210.758312,55.5897937 208.644255,55.5897937 L165.485368,55.5897937 C163.371311,55.5897937 161.657529,57.3035757 161.657529,59.4176328 L161.657529,98.1170864 C161.657529,100.231144 163.371311,101.944926 165.485368,101.944926 M225.257076,101.983204 L268.435102,101.983204 C270.515734,101.904607 272.184344,100.235997 272.262941,98.1553648 L272.262941,59.4176328 C272.184344,57.3370011 270.515734,55.6683911 268.435102,55.5897937 L225.257076,55.5897937 C223.143019,55.5897937 221.429237,57.3035757 221.429237,59.4176328 L221.429237,98.1170864 C221.507835,100.197718 223.176445,101.866328 225.257076,101.944926 M225.257076,46.4412582 L268.435102,46.4412582 C270.549159,46.4412582 272.262941,44.7274763 272.262941,42.6134191 L272.262941,3.82783913 C272.184344,1.74720736 270.515734,0.0785973689 268.435102,-2.71984329e-14 L225.257076,-2.71984329e-14 C223.143019,-2.71984329e-14 221.429237,1.71378195 221.429237,3.82783913 L221.429237,42.5272927 C221.512384,44.6059358 223.178433,46.2719855 225.257076,46.3551318 M285.468986,157.295479 L328.647011,157.295479 C330.761068,157.295479 332.47485,155.581697 332.47485,153.46764 L332.47485,114.729908 C332.47485,112.615851 330.761068,110.902069 328.647011,110.902069 L285.468986,110.902069 C283.354929,110.902069 281.641147,112.615851 281.641147,114.729908 L281.641147,153.429362 C281.719744,155.509994 283.388354,157.178604 285.468986,157.257201"></path>
        </g>
    </g>
</svg>
